<svg width="136" height="40" viewBox="0 0 136 40" fill="none" xmlns="http://www.w3.org/2000/svg">
<path d="M22.4476 5.24164L9.13937 23.3085H25L24.038 30H0L0.761615 24.7584L14.0698 6.69145H3.68782L4.64986 0H23.1691L22.4476 5.24164Z" fill="#13131C"/>
<path d="M35.2796 15.2416L21.9924 33.3085H33.0384L32.0779 40H12.8675L13.6279 34.7584L26.9151 16.6915H12L12.9605 10H36L35.2796 15.2416Z" fill="#13131C"/>
<path d="M58.9014 13.704C60.1438 13.704 61.2702 13.984 62.2806 14.544C63.3076 15.088 64.111 15.864 64.6908 16.872C65.2706 17.864 65.5604 19.024 65.5604 20.352C65.5604 21.68 65.2706 22.848 64.6908 23.856C64.111 24.848 63.3076 25.624 62.2806 26.184C61.2702 26.728 60.1438 27 58.9014 27C57.0627 27 55.663 26.44 54.7022 25.32V26.808H51V9H54.8762V15.264C55.8535 14.224 57.1952 13.704 58.9014 13.704ZM58.2305 23.928C59.2244 23.928 60.0361 23.608 60.6655 22.968C61.3116 22.312 61.6346 21.44 61.6346 20.352C61.6346 19.264 61.3116 18.4 60.6655 17.76C60.0361 17.104 59.2244 16.776 58.2305 16.776C57.2366 16.776 56.4167 17.104 55.7707 17.76C55.1412 18.4 54.8265 19.264 54.8265 20.352C54.8265 21.44 55.1412 22.312 55.7707 22.968C56.4167 23.608 57.2366 23.928 58.2305 23.928Z" fill="#13131C"/>
<path d="M81.6224 13.896V26.808H77.945V25.272C77.4315 25.832 76.8186 26.264 76.1063 26.568C75.394 26.856 74.6238 27 73.7955 27C72.0397 27 70.6482 26.512 69.6212 25.536C68.5942 24.56 68.0807 23.112 68.0807 21.192V13.896H71.9568V20.64C71.9568 22.72 72.8596 23.76 74.6652 23.76C75.5928 23.76 76.3382 23.472 76.9014 22.896C77.4646 22.304 77.7462 21.432 77.7462 20.28V13.896H81.6224Z" fill="#13131C"/>
<path d="M96.2207 23.928V26.808H84.294V24.552L91.1022 16.776H84.468V13.896H95.997V16.152L89.1889 23.928H96.2207Z" fill="#13131C"/>
<path d="M109.712 23.928V26.808H97.7853V24.552L104.593 16.776H97.9592V13.896H109.488V16.152L102.68 23.928H109.712Z" fill="#13131C"/>
<path d="M125.12 20.4C125.12 20.448 125.096 20.784 125.046 21.408H114.933C115.115 22.208 115.546 22.84 116.225 23.304C116.904 23.768 117.749 24 118.76 24C119.455 24 120.068 23.904 120.598 23.712C121.145 23.504 121.65 23.184 122.114 22.752L124.176 24.912C122.917 26.304 121.079 27 118.66 27C117.153 27 115.819 26.72 114.66 26.16C113.5 25.584 112.606 24.792 111.976 23.784C111.347 22.776 111.032 21.632 111.032 20.352C111.032 19.088 111.339 17.952 111.951 16.944C112.581 15.92 113.434 15.128 114.511 14.568C115.604 13.992 116.821 13.704 118.163 13.704C119.472 13.704 120.656 13.976 121.716 14.52C122.777 15.064 123.605 15.848 124.201 16.872C124.814 17.88 125.12 19.056 125.12 20.4ZM118.188 16.536C117.31 16.536 116.573 16.776 115.977 17.256C115.38 17.736 115.016 18.392 114.883 19.224H121.468C121.335 18.408 120.971 17.76 120.375 17.28C119.778 16.784 119.049 16.536 118.188 16.536Z" fill="#13131C"/>
<path d="M131.403 15.6C131.867 14.976 132.488 14.504 133.267 14.184C134.062 13.864 134.973 13.704 136 13.704V17.16C135.569 17.128 135.279 17.112 135.13 17.112C134.021 17.112 133.151 17.416 132.521 18.024C131.892 18.616 131.577 19.512 131.577 20.712V26.808H127.701V13.896H131.403V15.6Z" fill="#13131C"/>
</svg>
