<svg width="56" height="56" viewBox="0 0 56 56" fill="none" xmlns="http://www.w3.org/2000/svg">
<path d="M40 56C48.8366 56 56 48.8366 56 40C56 31.1634 48.8366 24 40 24C31.1634 24 24 31.1634 24 40C24 48.8366 31.1634 56 40 56Z" fill="#F0E2FF"/>
<path d="M13.6519 43.5899H42.3598C46.0103 43.5899 48.0117 41.6045 48.0117 37.97V21.1103C48.0117 17.4918 46.0103 15.4904 42.3598 15.4904H38.309C37.0761 15.4904 36.6278 15.3303 35.7632 14.4977L34.5144 13.2489C33.6338 12.3843 32.7531 12 31.152 12H24.8116C23.2105 12 22.3299 12.3843 21.4493 13.2489L20.2005 14.4977C19.3359 15.3143 18.8875 15.4904 17.6547 15.4904H13.6519C10.0014 15.4904 8 17.4918 8 21.1103V37.97C8 41.6045 10.0014 43.5899 13.6519 43.5899ZM14.1002 39.459C12.8193 39.459 12.1309 38.8346 12.1309 37.4736V21.6227C12.1309 20.2617 12.8193 19.6213 14.1002 19.6213H19.0316C20.4726 19.6213 21.1611 19.3971 21.9777 18.5325L23.1465 17.2997C24.0111 16.371 24.5234 16.1309 25.9004 16.1309H30.0633C31.4402 16.1309 31.9526 16.387 32.7852 17.2676L33.986 18.5325C34.8026 19.3811 35.491 19.6213 36.932 19.6213H41.9115C43.1924 19.6213 43.8809 20.2617 43.8809 21.6227V37.4736C43.8809 38.8346 43.1924 39.459 41.9115 39.459H14.1002ZM28.0139 37.6498C32.7211 37.6498 36.4997 33.8712 36.4997 29.1319C36.4997 24.4086 32.7211 20.63 28.0139 20.63C23.3066 20.63 19.528 24.4086 19.528 29.1319C19.528 33.8712 23.3066 37.6498 28.0139 37.6498ZM36.868 23.6401C36.868 24.8729 37.8767 25.8496 39.0935 25.8496C40.2944 25.8336 41.3031 24.8729 41.3031 23.6401C41.3031 22.4552 40.2784 21.4305 39.0935 21.4305C37.8767 21.4305 36.868 22.4552 36.868 23.6401ZM28.0139 34.0313C25.324 34.0313 23.1305 31.8377 23.1305 29.1319C23.1305 26.426 25.308 24.2485 28.0139 24.2485C30.7197 24.2485 32.8812 26.426 32.8812 29.1319C32.8812 31.8377 30.7197 34.0313 28.0139 34.0313Z" fill="#1E1C1A"/>
</svg>
