<svg width="56" height="56" viewBox="0 0 56 56" fill="none" xmlns="http://www.w3.org/2000/svg">
<path d="M40 56C48.8366 56 56 48.8366 56 40C56 31.1634 48.8366 24 40 24C31.1634 24 24 31.1634 24 40C24 48.8366 31.1634 56 40 56Z" fill="#FFECC7"/>
<path d="M8 39.5112C8 40.4014 8.57598 41 9.4551 41H46.5449C47.424 41 48 40.4014 48 39.5112V16.4734C48 15.5832 47.424 15 46.5449 15H9.4551C8.57598 15 8 15.5832 8 16.4734V39.5112ZM11.9106 36.6104V19.3743C11.9106 19.0826 12.047 18.9599 12.335 18.9599H43.665C43.953 18.9599 44.0894 19.0826 44.0894 19.3743V36.6104C44.0894 36.902 43.953 37.0401 43.665 37.0401H12.335C12.047 37.0401 11.9106 36.902 11.9106 36.6104ZM13.1535 35.0909C13.1535 35.5514 13.3808 35.7816 13.8052 35.7816H42.1948C42.6192 35.7816 42.8617 35.5514 42.8617 35.0909V20.8937C42.8617 20.4333 42.6192 20.2031 42.1948 20.2031H13.8052C13.3808 20.2031 13.1535 20.4333 13.1535 20.8937V35.0909ZM14.8814 33.7403V22.2444C14.8814 22.0756 14.9875 21.9681 15.1542 21.9681H24.4456C23.324 23.3341 22.6419 25.4215 22.6419 27.9693C22.6419 30.5478 23.324 32.6505 24.4456 34.0165H15.1542C14.9875 34.0165 14.8814 33.9244 14.8814 33.7403ZM33.3732 27.9693C33.3732 25.4215 32.676 23.3341 31.5392 21.9681H40.8458C41.0277 21.9681 41.1186 22.0756 41.1186 22.2444V33.7403C41.1186 33.9244 41.0277 34.0165 40.8458 34.0165H31.5241C32.676 32.6505 33.3732 30.5478 33.3732 27.9693ZM27.9469 33.6482C26.1281 33.6482 24.6275 31.4227 24.6275 27.9693C24.6275 24.5466 26.1281 22.3518 27.9469 22.3518C29.8416 22.3518 31.3876 24.5466 31.3876 27.9693C31.3876 31.4227 29.8416 33.6482 27.9469 33.6482Z" fill="#1E1C1A"/>
</svg>
