<svg width="25" height="24" viewBox="0 0 25 24" fill="none" xmlns="http://www.w3.org/2000/svg">
<g clip-path="url(#clip0_14304_12710)">
<path d="M24.1035 12.07C24.1035 5.41 18.7335 0 12.1035 0C5.47352 0 0.103516 5.4 0.103516 12.07C0.103516 18.1 4.49352 23.1 10.2335 24V15.56H7.18352V12.07H10.2235V9.41C10.2235 6.39 12.0235 4.71 14.7635 4.71C16.0735 4.71 17.4435 4.95 17.4435 4.95V7.92H15.9435C14.4435 7.92 13.9835 8.85 13.9835 9.81V12.07H17.3035L16.7735 15.57H13.9735V24C19.7235 23.1 24.1035 18.1 24.1035 12.07Z" fill="black"/>
</g>
<defs>
<clipPath id="clip0_14304_12710">
<rect width="24" height="24" fill="white" transform="translate(0.103516)"/>
</clipPath>
</defs>
</svg>
