<svg width="131" height="134" viewBox="0 0 131 134" fill="none" xmlns="http://www.w3.org/2000/svg">
<path d="M43.1374 132.448C47.0727 134.062 51.2358 134.285 55.0818 133.339C60.8698 131.917 65.9279 127.851 68.3749 121.946C68.3828 121.933 68.39 121.92 68.3966 121.906C68.4026 121.892 68.4086 121.878 68.414 121.864L68.4223 121.843C68.4281 121.828 68.4334 121.814 68.4389 121.8L77.0313 100.635L94.4563 115.405C94.4738 115.422 94.4908 115.433 94.5077 115.447C94.5157 115.453 94.5232 115.46 94.5315 115.467C102.719 122.344 114.947 121.296 121.823 113.118C128.709 104.937 127.677 92.6463 119.548 85.6856L119.53 85.6677C119.514 85.6526 119.502 85.6414 119.485 85.6309L102.086 70.8442L121.426 58.7989C130.512 53.1409 133.308 41.0943 127.654 31.9579C122 22.8219 110.007 19.9846 100.91 25.6355L81.5629 37.6526L76.0896 15.4253C73.5141 4.99019 62.9703 -1.42732 52.5824 1.12598C42.1945 3.67927 35.8272 14.2534 38.3856 24.7028L43.826 46.9181L21.1122 45.2393C21.1038 45.2414 21.0932 45.242 21.0823 45.2417C21.0682 45.2414 21.0533 45.2393 21.0414 45.2367C10.3896 44.4802 1.11628 52.5446 0.346504 63.2399C-0.423467 73.9347 7.59227 83.2836 18.2249 84.1252C18.2347 84.1257 18.2437 84.127 18.2523 84.1285L18.2902 84.1333L18.3074 84.135L41.0186 85.8441L32.4569 107.012C32.4545 107.023 32.4499 107.034 32.4452 107.045C32.4403 107.056 32.4357 107.067 32.4333 107.078C28.4485 117.016 33.2439 128.392 43.1374 132.448Z" fill="#7B00FF"/>
</svg>
