<svg width="127" height="130" viewBox="0 0 127 130" fill="none" xmlns="http://www.w3.org/2000/svg">
<path d="M36.07 127.859C39.7232 129.753 43.7016 130.312 47.4652 129.709C53.1292 128.802 58.2952 125.263 61.0962 119.72C61.1048 119.708 61.1128 119.695 61.1201 119.682C61.1269 119.669 61.1338 119.656 61.14 119.643L61.1496 119.623C61.1563 119.609 61.1625 119.596 61.1688 119.583L71.0372 99.6996L86.6287 115.504C86.6443 115.521 86.6597 115.534 86.6749 115.549C86.6821 115.555 86.6887 115.562 86.6961 115.57C94.0273 122.934 105.843 122.923 113.069 115.532C120.304 108.141 120.256 96.0977 112.988 88.6563L112.972 88.6374C112.958 88.6215 112.947 88.6096 112.931 88.5979L97.3659 72.7793L116.851 62.6533C126.004 57.8969 129.611 46.4072 124.885 37.0529C120.159 27.6991 108.866 23.9511 99.702 28.6996L80.213 38.7976L76.6634 16.7223C74.9913 6.35799 65.3639 -0.753808 55.1985 0.874803C45.0332 2.50342 38.1119 12.2665 39.7665 22.6433L43.2855 44.7042L21.6148 41.2005C21.6067 41.2018 21.5965 41.2016 21.586 41.2003C21.5725 41.1988 21.5584 41.1956 21.5471 41.192C11.3822 39.5789 1.86424 46.661 0.305822 57.0029C-1.25274 67.3443 5.72381 77.0998 15.8639 78.7942C15.8732 78.7955 15.8817 78.7975 15.8899 78.7996L15.9259 78.8075L15.9423 78.8105L37.608 82.3436L27.7689 102.232C27.7658 102.243 27.7605 102.253 27.7551 102.264C27.7496 102.274 27.7443 102.285 27.7412 102.295C23.1552 111.635 26.8858 123.098 36.07 127.859Z" fill="#7B00FF"/>
</svg>
