<svg width="58" height="60" viewBox="0 0 58 60" fill="none" xmlns="http://www.w3.org/2000/svg">
<path d="M57.0833 42.7184C57.1975 34.0518 56.8579 21.1565 54.2467 13.8799C52.2988 8.43986 48.1457 3.95832 42.8796 1.61441C31.0011 -3.87676 17.0696 5.66143 17.7389 18.8044C17.774 19.5416 17.8771 20.2757 17.983 21.0293C18.0263 21.3368 18.0699 21.6477 18.1096 21.9634C17.7942 22.0056 17.4824 22.0427 17.174 22.0792C16.4184 22.169 15.6823 22.2565 14.9605 22.4105C2.08137 25.1149 -3.58885 41.0181 4.74985 51.1036C8.35913 55.5979 13.7515 58.471 19.5085 58.9671C27.2104 59.6364 39.766 56.6764 48.1169 54.356C50.4441 53.7096 56.7377 51.7251 56.7377 51.7251C56.7377 51.7251 57.0518 45.1334 57.0833 42.7184Z" fill="#EE0080"/>
</svg>
