<svg width="64" height="58" viewBox="0 0 64 58" fill="none" xmlns="http://www.w3.org/2000/svg">
<path d="M33.4657 53.2873C41.2345 49.4441 52.5618 43.2721 57.8524 37.635C61.8096 33.4244 63.9096 27.6865 63.5996 21.9307C63.0821 8.85466 48.248 0.791608 36.8502 7.36988C36.2097 7.73673 35.603 8.16262 34.9802 8.59998C34.7261 8.77849 34.4692 8.95884 34.2061 9.13786C34.025 8.87622 33.85 8.6155 33.6771 8.35757C33.2532 7.72556 32.8403 7.11 32.3745 6.5374C24.1043 -3.69919 7.36313 -1.50922 2.17854 10.5063C-0.180287 15.7657 -0.283974 21.8748 1.89472 27.2267C4.80442 34.3891 13.155 44.2213 19.0223 50.6007C20.6571 52.3787 25.2889 57.0792 25.2889 57.0792C25.2889 57.0792 31.301 54.3585 33.4657 53.2873Z" fill="#EE0080"/>
</svg>
