<svg width="25" height="24" viewBox="0 0 25 24" fill="none" xmlns="http://www.w3.org/2000/svg">
<g clip-path="url(#clip0_14304_12704)">
<path d="M17.0822 0.000203228C18.0191 -0.0321437 18.9527 0.126742 19.8261 0.467163C20.6995 0.807585 21.4944 1.3224 22.1622 1.9802C22.806 2.648 23.3094 3.43809 23.6426 4.30375C23.9758 5.16942 24.1321 6.0931 24.1022 7.0202V16.9802C24.1022 19.0602 23.4222 20.8502 22.1222 22.1102C20.7432 23.3834 18.9182 24.0624 17.0422 24.0002H7.16223C5.30199 24.0578 3.49424 23.3785 2.13223 22.1102C1.45708 21.4339 0.928419 20.6259 0.579169 19.7364C0.22992 18.847 0.0675716 17.8951 0.102238 16.9402V7.0202C0.102238 2.8002 2.90224 0.000203228 7.12223 0.000203228H17.0822ZM17.1322 2.2302H7.16223C5.71223 2.2302 4.46223 2.6602 3.63223 3.4802C3.18873 3.95259 2.84503 4.50954 2.62165 5.11778C2.39829 5.72602 2.29985 6.37305 2.33223 7.0202V16.9402C2.33223 18.4402 2.76223 19.6402 3.63223 20.5202C4.60255 21.3784 5.86807 21.8265 7.16223 21.7702H17.0422C18.3364 21.8265 19.6019 21.3784 20.5722 20.5202C21.0381 20.0593 21.4031 19.5066 21.6441 18.8972C21.8851 18.2878 21.9968 17.635 21.9722 16.9802V7.0202C22.0045 5.73286 21.5388 4.48272 20.6722 3.5302C20.1999 3.08669 19.6429 2.74298 19.0347 2.51962C18.4264 2.29626 17.7794 2.19782 17.1322 2.2302ZM12.1022 5.7602C15.4922 5.7602 18.3022 8.5602 18.3022 11.9602C18.3022 13.6045 17.649 15.1815 16.4863 16.3442C15.3236 17.5069 13.7466 18.1602 12.1022 18.1602C10.4579 18.1602 8.88091 17.5069 7.71817 16.3442C6.55546 15.1815 5.90224 13.6045 5.90224 11.9602C5.90224 10.3158 6.55546 8.73886 7.71817 7.57614C8.88091 6.41341 10.4579 5.7602 12.1022 5.7602ZM12.1022 7.9802C11.051 7.98546 10.0442 8.40541 9.30083 9.14879C8.55744 9.89218 8.1375 10.8989 8.13223 11.9502C8.1375 13.0014 8.55744 14.0082 9.30083 14.7516C10.0442 15.4949 11.051 15.9149 12.1022 15.9202C13.1535 15.9149 14.1603 15.4949 14.9036 14.7516C15.647 14.0082 16.067 13.0014 16.0722 11.9502C16.067 10.8989 15.647 9.89218 14.9036 9.14879C14.1603 8.40541 13.1535 7.98546 12.1022 7.9802ZM18.5422 4.2102C18.9135 4.2102 19.2696 4.3577 19.5322 4.62025C19.7947 4.8828 19.9422 5.2389 19.9422 5.6102C19.9422 5.9815 19.7947 6.3376 19.5322 6.60015C19.2696 6.8627 18.9135 7.0102 18.5422 7.0102C18.1709 7.0102 17.8148 6.8627 17.5523 6.60015C17.2897 6.3376 17.1422 5.9815 17.1422 5.6102C17.1422 5.2389 17.2897 4.8828 17.5523 4.62025C17.8148 4.3577 18.1709 4.2102 18.5422 4.2102Z" fill="black"/>
</g>
<defs>
<clipPath id="clip0_14304_12704">
<rect width="24" height="24" fill="white" transform="translate(0.103516)"/>
</clipPath>
</defs>
</svg>
