<svg width="146" height="162" viewBox="0 0 146 162" fill="none" xmlns="http://www.w3.org/2000/svg">
<path fill-rule="evenodd" clip-rule="evenodd" d="M99.5988 49.8901L43.7491 104.069L116.081 75.3507L60.2408 129.545L132.576 100.825L76.7331 155.022L143.76 128.427C144.341 128.196 145.001 128.482 145.234 129.065C145.467 129.649 145.185 130.308 144.604 130.539L66.9425 161.353L122.78 107.162L50.4457 135.882L106.286 81.687L33.9476 110.408L89.7974 56.2288L17.4626 84.9483L73.3121 30.7688L0.980359 59.4873L60.9274 1.30736C61.3757 0.872253 62.0931 0.885607 62.5298 1.33719C62.9666 1.78878 62.9571 2.50758 62.5088 2.94269L10.7756 53.151L83.1134 24.4301L27.2638 78.6096L99.5988 49.8901Z" fill="#4F4F4F"/>
</svg>
