<svg width="56" height="56" viewBox="0 0 56 56" fill="none" xmlns="http://www.w3.org/2000/svg">
<path d="M40 56C48.8366 56 56 48.8366 56 40C56 31.1634 48.8366 24 40 24C31.1634 24 24 31.1634 24 40C24 48.8366 31.1634 56 40 56Z" fill="#F0E2FF"/>
<path d="M21.0943 47H35.0997C38.0431 47 40 45.0112 40 42.0199V13.9965C40 11.0052 38.0431 9 35.0997 9H21.0943C18.0377 9 16 11.0052 16 13.9965V42.0199C16 45.0112 18.0377 47 21.0943 47ZM22 42.513C20.8518 42.513 20.1725 41.872 20.1725 40.7215V15.295C20.1725 14.1445 20.8518 13.5035 22 13.5035H34C35.1482 13.5035 35.8275 14.1609 35.8275 15.3114V40.705C35.8275 41.8555 35.1482 42.513 34 42.513H22Z" fill="#1E1C1A"/>
</svg>
