<svg width="123" height="170" viewBox="0 0 123 170" fill="none" xmlns="http://www.w3.org/2000/svg">
<path fill-rule="evenodd" clip-rule="evenodd" d="M64.6849 0.287915C75.1323 0.22633 88.619 2.64756 102.694 7.53101C103.271 7.73123 103.577 8.36134 103.376 8.93841C103.176 9.51547 102.546 9.82097 101.969 9.62075C88.0668 4.79725 74.8339 2.44007 64.6979 2.49982C59.6247 2.52972 55.3903 3.16503 52.2519 4.35464C49.1061 5.54704 47.2134 7.23179 46.505 9.27361C45.7965 11.3154 46.2391 13.8104 47.9703 16.695C48.8565 18.1714 50.0595 19.7121 51.5564 21.2899C53.4144 21.0721 55.4091 20.9586 57.5173 20.9461C67.9647 20.8845 81.4515 23.3058 95.5264 28.1892C103.43 30.9314 110.326 34.2814 115.088 37.5039C117.462 39.1105 119.36 40.7215 120.58 42.2509C121.761 43.7296 122.527 45.418 121.968 47.0287C121.409 48.6394 119.762 49.4905 117.919 49.9204C116.014 50.3651 113.526 50.4545 110.667 50.2455C104.932 49.8262 97.4437 48.1852 89.5401 45.443C75.4651 40.5596 63.3769 34.1073 55.2128 27.5883C53.5653 26.2728 52.0696 24.9482 50.7457 23.6265C48.5932 23.9381 46.6945 24.4025 45.0843 25.0129C41.9386 26.2053 40.0458 27.89 39.3374 29.9318C38.629 31.9737 39.0715 34.4687 40.8027 37.3532C41.6961 38.8418 42.9116 40.3956 44.4257 41.987C46.2697 41.7687 48.2475 41.6529 50.3364 41.6366C60.7916 41.5548 74.2833 43.9638 88.3589 48.8475C96.2625 51.5897 103.158 54.9396 107.92 58.1621C110.294 59.7687 112.192 61.3797 113.413 62.9091C114.593 64.3878 115.359 66.0762 114.8 67.6869C114.241 69.2977 112.594 70.1488 110.752 70.5787C108.846 71.0235 106.358 71.1129 103.499 70.9039C97.7648 70.4847 90.276 68.8437 82.3724 66.1015C68.2974 61.218 56.2093 54.7657 48.0451 48.2466C46.4142 46.9443 44.9319 45.633 43.6179 44.3244C41.4414 44.6419 39.5224 45.1152 37.8966 45.737C34.7471 46.9417 32.8463 48.6403 32.1317 50.6999C31.4171 52.7596 31.8574 55.2704 33.5839 58.1669C34.4753 59.6622 35.6888 61.2223 37.201 62.8197C39.0431 62.6062 41.0189 62.4948 43.1059 62.4825C53.5533 62.421 67.04 64.8423 81.115 69.7257C89.0185 72.4679 95.9144 75.8177 100.676 79.0402C103.05 80.6467 104.948 82.2576 106.169 83.787C107.349 85.2657 108.115 86.9541 107.557 88.5648C106.998 90.1756 105.35 91.0267 103.508 91.4566C101.602 91.9014 99.1146 91.9908 96.2556 91.7818C90.521 91.3626 83.0322 89.7216 75.1287 86.9794C61.0531 82.0957 48.9686 75.6308 40.8109 69.091C39.181 67.7844 37.7 66.4686 36.3875 65.1551C34.2131 65.4667 32.2964 65.9338 30.6729 66.5491C27.5272 67.7415 25.6345 69.4262 24.926 71.4681C24.2176 73.5099 24.6601 76.0049 26.3914 78.8894C27.2775 80.3659 28.4806 81.9065 29.9776 83.4844C31.8356 83.2666 33.8302 83.153 35.9384 83.1406C46.3858 83.0789 59.8726 85.5001 73.9476 90.3835C81.8511 93.1257 88.747 96.4757 93.5089 99.6983C95.8829 101.305 97.7806 102.916 99.0014 104.445C100.182 105.924 100.948 107.613 100.389 109.223C99.83 110.834 98.1828 111.685 96.3403 112.115C94.4346 112.56 91.947 112.649 89.0881 112.44C83.3536 112.02 75.8648 110.379 67.9613 107.637C53.8863 102.754 41.7981 96.3016 33.6339 89.7826C31.9865 88.4672 30.4907 87.1426 29.1669 85.8209C27.0144 86.1326 25.1156 86.597 23.5054 87.2074C20.3596 88.3999 18.4668 90.0846 17.7584 92.1265C17.05 94.1683 17.4925 96.6633 19.2237 99.5478C20.1099 101.024 21.3129 102.565 22.8099 104.143C24.6679 103.925 26.6626 103.811 28.7708 103.799C39.2182 103.737 52.7049 106.158 66.7799 111.042C74.6835 113.784 81.5794 117.134 86.3413 120.357C88.7153 121.963 90.613 123.574 91.8338 125.104C93.014 126.583 93.7801 128.271 93.2213 129.882C92.6624 131.492 91.0152 132.343 89.1728 132.773C87.2671 133.218 84.7795 133.307 81.9205 133.098C76.186 132.679 68.6972 131.038 60.7936 128.296C46.7186 123.412 34.6305 116.96 26.4662 110.441C24.8188 109.126 23.323 107.801 21.9992 106.479C19.8467 106.791 17.948 107.255 16.3378 107.866C13.1921 109.058 11.2994 110.743 10.591 112.784C9.88256 114.826 10.3251 117.321 12.0563 120.206C12.9497 121.694 14.1653 123.248 15.6794 124.84C17.5234 124.621 19.5011 124.506 21.59 124.489C32.045 124.408 45.5368 126.817 59.6123 131.7C67.5159 134.443 74.4117 137.792 79.1737 141.015C81.5477 142.622 83.4454 144.232 84.6662 145.762C85.8465 147.24 86.6127 148.929 86.0538 150.539C85.495 152.15 83.8478 153.001 82.0053 153.431C80.0996 153.876 77.6119 153.965 74.753 153.756C69.0184 153.337 61.5296 151.696 53.626 148.954C39.551 144.071 27.4629 137.618 19.2987 131.099C17.6678 129.797 16.1856 128.486 14.8716 127.177C12.695 127.494 10.776 127.968 9.15013 128.59C6.00067 129.794 4.0999 131.493 3.38529 133.552C2.67068 135.612 3.11096 138.123 4.8375 141.019C6.56038 143.91 9.48721 147.042 13.448 150.218C21.3614 156.562 33.2057 162.919 47.1073 167.742C47.6843 167.942 47.9898 168.572 47.7896 169.15C47.5894 169.727 46.9593 170.032 46.3822 169.832C32.3066 164.948 20.2221 158.483 12.0644 151.944C7.98961 148.677 4.84527 145.352 2.93751 142.152C1.03342 138.958 0.283586 135.744 1.29556 132.827C2.30753 129.911 4.88658 127.852 8.35992 126.524C9.76043 125.988 11.3306 125.561 13.0475 125.238C11.8982 123.928 10.929 122.626 10.1597 121.344C8.2512 118.164 7.49362 114.963 8.50126 112.059C9.50886 109.155 12.0859 107.112 15.5538 105.797C16.9368 105.273 18.4857 104.854 20.1783 104.539C19.0451 103.242 18.0883 101.954 17.3272 100.686C15.4186 97.5062 14.661 94.3056 15.6687 91.4014C16.6763 88.4972 19.2534 86.4537 22.7213 85.1391C24.1044 84.6148 25.6533 84.1962 27.346 83.8803C26.2128 82.5838 25.2559 81.2958 24.4948 80.0277C22.5862 76.8477 21.8287 73.6472 22.8363 70.743C23.8439 67.8388 26.421 65.7953 29.8889 64.4808C31.2868 63.9509 32.8542 63.529 34.5681 63.2119C33.4198 61.8956 32.4517 60.5875 31.6839 59.2995C29.7799 56.1051 29.03 52.8916 30.042 49.9749C31.054 47.0582 33.633 44.9996 37.1064 43.6711C38.5068 43.1354 40.077 42.708 41.7938 42.3858C40.6446 41.0753 39.6754 39.7733 38.9061 38.4915C36.9976 35.3115 36.24 32.111 37.2477 29.2068C38.2553 26.3026 40.8324 24.2591 44.3003 22.9445C45.6833 22.4203 47.2322 22.0017 48.9249 21.6858C47.7916 20.3893 46.8348 19.1014 46.0737 17.8332C44.1652 14.6533 43.4076 11.4528 44.4152 8.54856C45.4229 5.64436 47.9999 3.60084 51.4679 2.2863C54.9432 0.968969 59.4664 0.318675 64.6849 0.287915ZM17.7411 126.861C18.6453 127.692 19.6256 128.53 20.6789 129.371C28.5997 135.695 40.4489 142.041 54.3511 146.864C62.1266 149.562 69.4216 151.149 74.9142 151.55C77.6689 151.752 79.9057 151.65 81.5026 151.277C83.1628 150.89 83.7965 150.297 83.9641 149.814C84.1316 149.332 84.001 148.474 82.9375 147.142C81.9145 145.86 80.2214 144.395 77.934 142.847C73.3729 139.76 66.6628 136.488 58.8873 133.79C44.9856 128.967 31.7493 126.622 21.6072 126.701C20.2577 126.712 18.9673 126.765 17.7411 126.861ZM24.8689 106.166C25.7841 107.009 26.7777 107.859 27.8464 108.713C35.7673 115.037 47.6165 121.382 61.5187 126.206C69.2943 128.904 76.5892 130.49 82.0818 130.892C84.8365 131.093 87.0733 130.992 88.6702 130.619C90.3304 130.232 90.964 129.639 91.1315 129.157C91.2991 128.674 91.1685 127.816 90.105 126.484C89.082 125.202 87.389 123.737 85.1016 122.189C80.5406 119.102 73.8305 115.829 66.0549 113.132C52.1527 108.308 38.9198 105.951 28.7838 106.011C27.4162 106.019 26.1096 106.071 24.8689 106.166ZM32.0366 85.5077C32.9518 86.3507 33.9454 87.2008 35.0141 88.0541C42.9349 94.3787 54.7841 100.724 68.6863 105.547C76.4619 108.245 83.7568 109.832 89.2494 110.234C92.004 110.435 94.2408 110.333 95.8377 109.961C97.4979 109.574 98.1316 108.981 98.2991 108.498C98.4667 108.015 98.3361 107.158 97.2726 105.825C96.2496 104.544 94.5566 103.078 92.2692 101.53C87.7082 98.4435 80.9981 95.171 73.2225 92.4732C59.3203 87.6497 46.0874 85.2926 35.9514 85.3525C34.5839 85.3606 33.2773 85.4126 32.0366 85.5077ZM39.2578 64.8454C40.1615 65.6798 41.1414 66.521 42.1944 67.3652C50.1078 73.7091 61.9521 80.0664 75.8537 84.8897C83.6293 87.5875 90.9243 89.1742 96.4169 89.5757C99.1715 89.7771 101.408 89.6752 103.005 89.3026C104.665 88.9152 105.299 88.3228 105.467 87.8398C105.634 87.3568 105.504 86.4993 104.44 85.1669C103.417 83.8853 101.724 82.42 99.4367 80.8721C94.8757 77.7856 88.1655 74.5133 80.3899 71.8155C66.4877 66.992 53.2549 64.6347 43.1189 64.6944C41.7711 64.7023 40.4824 64.753 39.2578 64.8454ZM46.4873 44.0079C47.3916 44.839 48.372 45.677 49.4254 46.5181C57.3461 52.8429 69.1953 59.1883 83.0975 64.0118C90.8731 66.7096 98.168 68.2963 103.661 68.6978C106.415 68.8992 108.652 68.7973 110.249 68.4247C111.909 68.0373 112.543 67.4449 112.711 66.9619C112.878 66.4789 112.747 65.6214 111.684 64.289C110.661 63.0074 108.968 61.542 106.681 59.994C102.12 56.9074 95.4094 53.635 87.6338 50.9372C73.7322 46.1139 60.4958 43.7691 50.3538 43.8484C49.0041 43.859 47.7137 43.9125 46.4873 44.0079ZM53.6154 23.3132C54.5306 24.1562 55.5242 25.0064 56.593 25.8598C64.5138 32.1845 76.3629 38.5298 90.2651 43.3533C98.0407 46.0511 105.336 47.6378 110.828 48.0394C113.583 48.2409 115.82 48.139 117.417 47.7664C119.077 47.379 119.711 46.7867 119.878 46.3037C120.046 45.8207 119.915 44.9632 118.852 43.6308C117.829 42.3492 116.136 40.8838 113.848 39.3358C109.287 36.2492 102.577 32.9768 94.8014 30.279C80.8992 25.4555 67.6663 23.0983 57.5304 23.158C56.1627 23.1661 54.8561 23.2182 53.6154 23.3132Z" fill="black"/>
</svg>
