<svg width="154" height="113" viewBox="0 0 154 113" fill="none" xmlns="http://www.w3.org/2000/svg">
<path fill-rule="evenodd" clip-rule="evenodd" d="M105.094 1.38913C116.13 3.73992 129.699 9.50302 143.215 18.093C143.681 18.3892 143.818 19.0072 143.522 19.4733C143.226 19.9394 142.608 20.0771 142.142 19.7809C128.774 11.2848 115.426 5.63476 104.678 3.34524C99.2993 2.19964 94.6262 1.9072 90.9491 2.48343C87.2698 3.06001 84.7109 4.48154 83.3313 6.65222C81.9518 8.82289 81.7511 11.7432 82.7912 15.3192C83.3302 17.1723 84.1943 19.1686 85.3643 21.2723C87.4017 21.4634 89.5599 21.8032 91.8147 22.2835C102.851 24.6343 116.419 30.3974 129.935 38.9873C137.523 43.8097 143.874 49.059 148.006 53.6699C150.067 55.97 151.615 58.1549 152.472 60.0845C153.311 61.9721 153.598 63.8808 152.649 65.3744C151.7 66.868 149.85 67.4181 147.785 67.4603C145.674 67.5034 143.038 67.0294 140.08 66.14C134.152 64.3571 126.702 60.8351 119.115 56.0126C105.599 47.4227 94.6202 37.5848 87.8061 28.5908C86.4139 26.7532 85.1899 24.9434 84.152 23.1799C81.7504 23.0138 79.5761 23.079 77.6696 23.3778C73.9903 23.9544 71.4314 25.3759 70.0519 27.5466C68.6723 29.7173 68.4716 32.6376 69.5117 36.2137C70.055 38.0817 70.9287 40.0953 72.1132 42.2178C74.1361 42.4051 76.2771 42.7385 78.5126 43.21C89.5624 45.5405 103.139 51.2914 116.656 59.8817C124.243 64.7041 130.595 69.9533 134.726 74.5642C136.787 76.8643 138.336 79.0493 139.193 80.9788C140.031 82.8665 140.319 84.7751 139.37 86.2687C138.42 87.7624 136.57 88.3125 134.505 88.3547C132.394 88.3979 129.758 87.9239 126.801 87.0346C120.872 85.2517 113.423 81.7297 105.835 76.9073C92.3192 68.3173 81.3406 58.4794 74.5266 49.4853C73.1482 47.6659 71.9346 45.8738 70.9033 44.1268C68.4747 43.9615 66.2764 44.0317 64.35 44.3396C60.6629 44.9288 58.0924 46.364 56.7018 48.5521C55.3111 50.7401 55.1031 53.6768 56.135 57.2652C56.6742 59.1402 57.544 61.1604 58.7248 63.2892C60.7443 63.4813 62.882 63.8191 65.1144 64.2946C76.1506 66.6455 89.719 72.4087 103.235 80.9986C110.822 85.821 117.174 91.0701 121.306 95.6809C123.367 97.981 124.915 100.166 125.772 102.095C126.611 103.983 126.898 105.892 125.949 107.385C125 108.879 123.149 109.429 121.084 109.471C118.973 109.514 116.338 109.04 113.38 108.151C107.451 106.368 100.002 102.846 92.4143 98.0238C78.8981 89.4336 67.9268 79.5827 61.1254 70.5677C59.7494 68.7439 58.5385 66.947 57.5101 65.1951C55.0854 65.0238 52.8913 65.0877 50.9693 65.3888C47.2901 65.9654 44.7312 67.3869 43.3516 69.5576C41.972 71.7283 41.7714 74.6486 42.8115 78.2246C43.3505 80.0776 44.2146 82.074 45.3847 84.1778C47.4221 84.3688 49.5802 84.7086 51.835 85.1889C62.8713 87.5396 76.4398 93.3026 89.9555 101.893C97.5432 106.715 103.895 111.964 108.026 116.575C110.087 118.875 111.635 121.06 112.493 122.99C113.331 124.878 113.619 126.786 112.669 128.28C111.72 129.773 109.87 130.324 107.805 130.366C105.694 130.409 103.058 129.935 100.101 129.045C94.1721 127.262 86.7228 123.74 79.1351 118.918C65.6194 110.328 54.6406 100.49 47.8265 91.496C46.4343 89.6585 45.2103 87.8488 44.1724 86.0853C41.7708 85.9192 39.5964 85.9845 37.6898 86.2833C34.0105 86.8599 31.4516 88.2815 30.072 90.4522C28.6924 92.6229 28.4918 95.5432 29.532 99.1191C30.0709 100.972 30.935 102.968 32.105 105.072C34.1424 105.263 36.3007 105.603 38.5555 106.083C49.5917 108.434 63.1602 114.197 76.6759 122.787C84.2636 127.609 90.6153 132.859 94.7467 137.47C96.8076 139.77 98.3557 141.955 99.2129 143.884C100.052 145.772 100.339 147.681 99.3897 149.174C98.4404 150.668 96.5903 151.218 94.5253 151.26C92.4144 151.303 89.7789 150.829 86.8214 149.94C80.8926 148.157 73.4432 144.635 65.8555 139.812C52.3398 131.222 41.361 121.385 34.5469 112.391C33.1547 110.553 31.9307 108.743 30.8927 106.98C28.4912 106.814 26.3169 106.879 24.4104 107.178C20.7311 107.754 18.1723 109.176 16.7928 111.346C15.4133 113.517 15.2126 116.437 16.2527 120.013C16.796 121.881 17.6698 123.895 18.8543 126.018C20.8771 126.205 23.018 126.538 25.2534 127.01C36.3032 129.34 49.8801 135.091 63.3963 143.682C70.9841 148.504 77.3357 153.753 81.4672 158.364C83.5281 160.664 85.0762 162.849 85.9335 164.779C86.7721 166.666 87.0597 168.575 86.1105 170.068C85.1612 171.562 83.3111 172.112 81.2459 172.154C79.135 172.197 76.4994 171.723 73.5419 170.834C67.613 169.051 60.1636 165.529 52.5759 160.707C39.0602 152.117 28.0816 142.279 21.2675 133.285C19.8892 131.465 18.6757 129.673 17.6444 127.926C15.2157 127.761 13.0173 127.831 11.0909 128.139C7.40386 128.728 4.83334 130.164 3.44271 132.352C2.05207 134.54 1.84406 137.476 2.87596 141.065C3.9074 144.652 6.14877 148.77 9.46286 153.163C16.0863 161.942 26.8604 171.64 40.228 180.135C40.6941 180.432 40.8318 181.05 40.5356 181.516C40.2393 181.982 39.6213 182.12 39.1552 181.823C25.639 173.233 14.6678 163.382 7.86629 154.367C4.46793 149.863 2.07694 145.523 0.953858 141.618C-0.168765 137.714 -0.0534693 134.124 1.75476 131.279C3.563 128.434 6.76409 126.805 10.7753 126.164C12.5179 125.886 14.4362 125.789 16.5011 125.864C15.5537 124.033 14.8236 122.261 14.3323 120.572C13.201 116.682 13.3051 113.105 15.1049 110.273C16.9046 107.442 20.0988 105.829 24.1008 105.202C25.8219 104.932 27.7152 104.84 29.7526 104.916C28.8187 103.104 28.0981 101.35 27.6115 99.6777C26.4802 95.7881 26.5843 92.2113 28.3841 89.3794C30.1839 86.5475 33.3781 84.9346 37.3802 84.3074C39.1013 84.0377 40.9948 83.9457 43.0323 84.0217C42.0983 82.2093 41.3777 80.456 40.8911 78.7832C39.7598 74.8935 39.8639 71.3167 41.6637 68.4848C43.4635 65.653 46.6577 64.0401 50.6597 63.413C52.3978 63.1406 54.3116 63.0495 56.3721 63.1297C55.4275 61.2919 54.7006 59.514 54.2129 57.818C53.0903 53.9141 53.2056 50.3244 55.0138 47.4793C56.8221 44.6341 60.0232 43.0057 64.0343 42.3646C65.7769 42.0861 67.6952 41.9894 69.76 42.0643C68.8127 40.2329 68.0826 38.4615 67.5913 36.7722C66.46 32.8825 66.5641 29.3057 68.3639 26.4738C70.1637 23.6419 73.3579 22.0291 77.36 21.4019C79.0811 21.1322 80.9744 21.0402 83.0119 21.1163C82.078 19.3039 81.3574 17.5506 80.8708 15.8778C79.7395 11.9881 79.8436 8.41131 81.6434 5.57944C83.4432 2.74757 86.6374 1.1347 90.6394 0.507549C94.6436 -0.119939 99.5801 0.214573 105.094 1.38913ZM20.1377 128.169C20.9444 129.441 21.8536 130.746 22.8617 132.077C29.4981 140.837 40.2806 150.523 53.6487 159.019C61.1273 163.772 68.4091 167.202 74.1178 168.919C76.9791 169.779 79.3889 170.192 81.205 170.155C83.0671 170.117 84.0259 169.62 84.4225 168.996C84.819 168.372 84.8619 167.293 84.1058 165.591C83.3682 163.931 81.9715 161.924 79.9776 159.699C75.9995 155.259 69.8021 150.123 62.3235 145.37C48.9559 136.874 35.6011 131.236 24.8407 128.967C23.2054 128.622 21.635 128.356 20.1377 128.169ZM33.3856 107.225C34.2 108.513 35.1199 109.835 36.141 111.183C42.7776 119.942 53.5601 129.628 66.9283 138.124C74.4069 142.877 81.6887 146.308 87.3974 148.024C90.2586 148.885 92.6684 149.297 94.4845 149.26C96.3465 149.222 97.3052 148.725 97.7017 148.102C98.0983 147.478 98.1413 146.398 97.3852 144.696C96.6477 143.036 95.251 141.03 93.2571 138.804C89.2791 134.365 83.0817 129.228 75.6031 124.475C62.235 115.979 48.8874 110.329 38.1388 108.039C36.4849 107.687 34.8977 107.416 33.3856 107.225ZM46.6653 86.3306C47.4797 87.6188 48.3995 88.9404 49.4206 90.2883C56.0572 99.0478 66.8397 108.734 80.2078 117.23C87.6865 121.983 94.9682 125.413 100.677 127.13C103.538 127.991 105.948 128.403 107.764 128.366C109.626 128.328 110.585 127.831 110.981 127.207C111.378 126.583 111.421 125.504 110.665 123.802C109.927 122.142 108.531 120.135 106.537 117.91C102.559 113.47 96.3613 108.334 88.8827 103.58C75.5146 95.0843 62.167 89.4344 51.4184 87.145C49.7645 86.7927 48.1773 86.5211 46.6653 86.3306ZM60.0029 65.4437C60.8077 66.7201 61.7153 68.0289 62.7219 69.3631C69.3453 78.1421 80.1194 87.84 93.487 96.3359C100.966 101.089 108.247 104.519 113.956 106.236C116.817 107.096 119.227 107.509 121.043 107.472C122.905 107.434 123.864 106.937 124.261 106.313C124.658 105.688 124.7 104.609 123.944 102.907C123.207 101.247 121.81 99.2408 119.816 97.0156C115.838 92.576 109.641 87.4396 102.162 82.6866C88.7938 74.1904 75.4462 68.5403 64.6978 66.2507C63.0651 65.903 61.4975 65.6338 60.0029 65.4437ZM73.3966 44.3692C74.2033 45.6417 75.1126 46.9469 76.1207 48.2775C82.7571 57.0372 93.5396 66.7232 106.908 75.2193C114.386 79.9724 121.668 83.4026 127.377 85.1193C130.238 85.9797 132.648 86.3923 134.464 86.3551C136.326 86.3171 137.285 85.82 137.682 85.196C138.078 84.5719 138.121 83.4928 137.365 81.7908C136.627 80.1307 135.231 78.1241 133.237 75.8989C129.259 71.4592 123.061 66.3227 115.583 61.5696C102.215 53.0738 88.8604 47.4365 78.0999 45.1669C76.4645 44.822 74.894 44.556 73.3966 44.3692ZM86.6448 23.4252C87.4593 24.7134 88.3791 26.0351 89.4003 27.383C96.0367 36.1426 106.819 45.8286 120.187 54.3247C127.666 59.0778 134.948 62.508 140.656 64.2247C143.518 65.0852 145.927 65.4978 147.744 65.4607C149.606 65.4227 150.564 64.9256 150.961 64.3016C151.358 63.6776 151.401 62.5985 150.644 60.8965C149.907 59.2364 148.51 57.2298 146.516 55.0045C142.538 50.5648 136.341 45.4283 128.862 40.6753C115.494 32.1791 102.147 26.5291 91.3981 24.2396C89.7442 23.8873 88.1569 23.6157 86.6448 23.4252Z" fill="#13131C"/>
</svg>
