<svg width="56" height="56" viewBox="0 0 56 56" fill="none" xmlns="http://www.w3.org/2000/svg">
<path d="M40 56C48.8366 56 56 48.8366 56 40C56 31.1634 48.8366 24 40 24C31.1634 24 24 31.1634 24 40C24 48.8366 31.1634 56 40 56Z" fill="#FFE0F1"/>
<path d="M14.3249 48.0144C15.3983 48.843 16.7353 48.5793 18.1853 47.5248L27.6951 40.5384L37.1672 47.5248C38.636 48.5793 39.973 48.843 41.0464 48.0144C42.101 47.2047 42.3269 45.8676 41.762 44.2105L37.9958 33.0436L47.5808 26.189C49.0309 25.1533 49.6711 23.9481 49.238 22.6676C48.8049 21.4059 47.5997 20.7845 45.8107 20.8033L34.0789 20.8974L30.5009 9.67403C29.9548 7.96039 29.0321 7 27.6951 7C26.3392 7 25.4165 7.96039 24.8704 9.67403L21.2925 20.8974L9.54178 20.8033C7.77164 20.7845 6.56644 21.4059 6.13333 22.6487C5.70021 23.9481 6.34047 25.1533 7.79047 26.189L17.3756 33.0436L13.6093 44.2105C13.0444 45.8676 13.2704 47.2047 14.3249 48.0144ZM18.6938 42.0261C18.6561 41.9884 18.6561 41.9696 18.6749 41.8943L21.9516 32.9494C22.3847 31.7066 22.3282 31.1416 21.1418 30.3695L13.2515 25.0591C13.1762 25.0026 13.1385 24.965 13.1574 24.9273C13.1762 24.8897 13.2139 24.8708 13.308 24.8708L22.8178 25.2098C24.136 25.2475 24.6632 24.9462 25.0022 23.6656L27.6009 14.5137C27.6198 14.4195 27.6386 14.3818 27.6951 14.3818C27.7327 14.3818 27.7516 14.4195 27.7704 14.5137L30.3691 23.6656C30.7081 24.9462 31.2353 25.2475 32.5724 25.2098L42.0821 24.8708C42.1763 24.8708 42.214 24.8897 42.2328 24.9273C42.2328 24.965 42.214 25.0026 42.1386 25.0591L34.2295 30.3695C33.0431 31.1605 32.9867 31.7066 33.4198 32.9494L36.6964 41.8943C36.7152 41.9696 36.7152 41.9884 36.6964 42.0261C36.6587 42.0637 36.6211 42.0449 36.5458 42.0072L29.0698 36.1131C27.9964 35.2845 27.3749 35.2845 26.3016 36.1131L18.8256 42.0072C18.7502 42.0449 18.7126 42.0637 18.6938 42.0261Z" fill="#1E1C1A"/>
</svg>
