<svg width="232" height="231" viewBox="0 0 232 231" fill="none" xmlns="http://www.w3.org/2000/svg">
<path fill-rule="evenodd" clip-rule="evenodd" d="M123.647 65.4949L116 13.6956L108.354 65.4949L85.7558 18.2484L93.7404 69.9973L58.2013 31.5028L81.1063 78.6008L35.7862 52.278L71.5748 90.5395L20.4996 78.7248L65.9904 104.752L13.6977 108.494L64.8481 119.976L15.9813 138.942L68.2493 134.861L27.1506 167.368L75.8927 148.084L46.2141 191.245L87.1005 158.471L71.481 208.453L100.878 165.098L100.707 217.457L116 167.375L131.294 217.457L131.123 165.098L160.519 208.453L144.9 158.471L185.786 191.245L156.108 148.084L204.85 167.368L163.751 134.861L216.019 138.942L167.152 119.976L218.302 108.494L166.01 104.752L211.501 78.7248L160.426 90.5395L196.214 52.2779L150.894 78.6008L173.799 31.5028L138.26 69.9973L146.245 18.2485L123.647 65.4949ZM150.288 5.16019L141.236 63.8255L181.529 20.1822L155.561 73.5772L206.947 43.7312L166.371 87.1115L224.285 73.7149L172.705 103.226L232 107.469L174 120.488L229.409 141.994L170.142 137.366L216.741 174.223L161.474 152.358L195.121 201.292L148.764 164.132L166.472 220.795L133.144 171.643L133.338 231L116 174.223L98.6625 231L98.8564 171.643L65.5285 220.795L83.2361 164.132L36.8788 201.292L70.5268 152.358L15.2594 174.223L61.858 137.366L2.59122 141.994L58.0001 120.488L0 107.469L59.2958 103.226L7.71583 73.7149L65.6298 87.1115L25.0533 43.7312L76.4392 73.5772L50.4717 20.1822L90.7645 63.8255L81.7126 5.16019L107.332 58.723L116 0L124.669 58.723L150.288 5.16019Z" fill="black"/>
</svg>
