<svg width="318" height="320" viewBox="0 0 318 320" fill="none" xmlns="http://www.w3.org/2000/svg">
<path d="M159 0L170.882 81.3479L205.998 7.14831L193.591 88.4163L248.819 27.958L213.226 101.925L283.66 60.58L228.043 120.674L307.425 102.116L236.725 142.997L318 148.874L238.5 166.91L314.448 196.702L233.212 190.291L297.084 241.348L221.331 211.059L267.451 278.846L203.91 227.369L228.181 305.864L182.499 237.774L182.765 320L159 241.348L135.236 320L135.501 237.774L89.8192 305.864L114.091 227.369L50.5494 278.846L96.6703 211.059L20.9159 241.348L84.7881 190.291L3.55175 196.702L79.5001 166.91L0 148.874L81.2761 142.997L10.576 102.116L89.9581 120.674L34.3403 60.58L104.774 101.925L69.1811 27.958L124.41 88.4163L112.003 7.14831L147.119 81.3479L159 0Z" fill="#FBAA05"/>
</svg>
