<svg width="25" height="24" viewBox="0 0 25 24" fill="none" xmlns="http://www.w3.org/2000/svg">
<g clip-path="url(#clip0_14304_12707)">
<path d="M24.1035 4.37C23.2069 4.78044 22.2523 5.05027 21.2735 5.17C22.3118 4.52999 23.0828 3.53517 23.4435 2.37C22.4935 2.95 21.4435 3.37 20.3135 3.59C19.8575 3.0886 19.3016 2.68813 18.6816 2.4143C18.0617 2.14048 17.3913 1.99936 16.7135 2C15.9595 2.00771 15.2171 2.18618 14.542 2.52201C13.8669 2.85784 13.2767 3.3423 12.8157 3.93898C12.3547 4.53566 12.035 5.22905 11.8804 5.96706C11.7259 6.70507 11.7406 7.4685 11.9235 8.2C9.95347 8.09245 8.02905 7.56584 6.27873 6.65533C4.52842 5.74482 2.99249 4.47137 1.77352 2.92C1.13761 4.03248 0.941965 5.34298 1.22523 6.59268C1.5085 7.84238 2.25008 8.94044 3.30352 9.67C2.51917 9.64141 1.75366 9.42172 1.07352 9.03V9.1C1.07352 11.54 2.77352 13.58 5.02352 14.05C4.29973 14.2484 3.53971 14.2758 2.80352 14.13C3.43352 16.14 5.25352 17.6 7.40352 17.64C6.39002 18.4622 5.22134 19.0718 3.96715 19.4326C2.71297 19.7934 1.39897 19.898 0.103516 19.74C2.344 21.2176 4.96965 22.0036 7.65352 22C16.7135 22 21.6535 14.3 21.6535 7.63V6.98C22.6135 6.27 23.4435 5.38 24.1035 4.37Z" fill="black"/>
</g>
<defs>
<clipPath id="clip0_14304_12707">
<rect width="24" height="24" fill="white" transform="translate(0.103516)"/>
</clipPath>
</defs>
</svg>
