<svg width="130" height="132" viewBox="0 0 130 132" fill="none" xmlns="http://www.w3.org/2000/svg">
<path fill-rule="evenodd" clip-rule="evenodd" d="M0.299326 118.713C-0.0946676 118.326 -0.100318 117.693 0.286706 117.299C1.26999 116.298 2.58703 115.982 3.97072 116.052C5.33802 116.121 6.87149 116.568 8.46594 117.212C11.6406 118.493 15.353 120.683 18.9761 122.819L19.0273 122.85C22.7106 125.022 26.3006 127.136 29.3215 128.356C30.8322 128.966 32.126 129.32 33.1688 129.372C34.1953 129.424 34.8714 129.183 35.3252 128.721C35.779 128.259 36.0081 127.579 35.938 126.553C35.8667 125.512 35.4896 124.224 34.8528 122.725C33.5795 119.726 31.4014 116.174 29.1638 112.53L29.1327 112.48C26.9317 108.895 24.6764 105.223 23.3383 102.071C22.6662 100.489 22.1921 98.9635 22.0987 97.5976C22.0041 96.2154 22.2967 94.8929 23.28 93.8919C24.2633 92.8909 25.5803 92.5748 26.964 92.6447C28.3313 92.7138 29.8647 93.1606 31.4591 93.8045C34.6372 95.0879 38.3541 97.2812 41.9804 99.4211L42.0192 99.444C45.7017 101.617 49.2906 103.733 52.3098 104.954C53.8198 105.565 55.1125 105.92 56.1542 105.974C57.1797 106.027 57.8536 105.787 58.305 105.327C58.7588 104.865 58.988 104.185 58.9178 103.16C58.8465 102.118 58.4694 100.831 57.8325 99.3313C56.5591 96.3329 54.3806 92.7816 52.1422 89.1387L52.1035 89.0756C49.9041 85.4961 47.6513 81.8296 46.3128 78.6841C45.6398 77.1026 45.1645 75.5786 45.0696 74.2142C44.9736 72.8336 45.2641 71.5119 46.2464 70.512C47.2297 69.511 48.5467 69.1948 49.9304 69.2647C51.2977 69.3338 52.8312 69.7806 54.4255 70.4244C57.6037 71.7078 61.3207 73.9013 64.947 76.0412L64.9856 76.064C68.6681 78.2371 72.257 80.3528 75.2762 81.5743C76.7862 82.1853 78.0789 82.5404 79.1206 82.5943C80.1461 82.6472 80.8199 82.407 81.2713 81.9474C81.7251 81.4854 81.9543 80.8051 81.8842 79.7797C81.8129 78.738 81.4358 77.4507 80.799 75.9511C79.5257 72.9525 77.3476 69.4008 75.11 65.7569L75.0787 65.7058C72.8778 62.1216 70.6226 58.449 69.2844 55.2979C68.6124 53.7152 68.1382 52.19 68.0447 50.8241C67.9501 49.4419 68.2427 48.1195 69.226 47.1185C70.2093 46.1175 71.5263 45.8013 72.91 45.8712C74.2773 45.9402 75.8108 46.387 77.4053 47.0307C80.58 48.3124 84.2925 50.5018 87.9156 52.6385L87.9667 52.6686C91.65 54.8408 95.24 56.9551 98.2609 58.1747C99.7717 58.7846 101.065 59.1387 102.108 59.1914C103.135 59.2432 103.811 59.0019 104.265 58.54C104.718 58.078 104.948 57.3978 104.877 56.3724C104.806 55.3307 104.429 54.0435 103.792 52.5439C102.519 49.5453 100.341 45.9936 98.1031 42.3497L98.0722 42.2993C95.8711 38.7149 93.6157 35.042 92.2776 31.8906C91.6055 30.3079 91.1314 28.7826 91.038 27.4168C90.9434 26.0345 91.2361 24.7121 92.2194 23.7111C93.2027 22.7101 94.5197 22.3939 95.9034 22.4637C97.2707 22.5328 98.8042 22.9796 100.399 23.6233C103.573 24.905 107.286 27.0944 110.909 29.2311L110.96 29.2612C114.643 31.4333 118.233 33.5477 121.254 34.7672C122.765 35.3772 124.059 35.7312 125.102 35.7839C126.128 35.8357 126.804 35.5945 127.258 35.1325C127.712 34.6706 127.941 33.9903 127.871 32.965C127.799 31.9232 127.422 30.636 126.786 29.1364C125.512 26.1379 123.334 22.5862 121.096 18.9423L121.066 18.8921C118.865 15.3076 116.609 11.6346 115.271 8.48315C114.599 6.90044 114.125 5.37518 114.031 4.00933C113.937 2.62707 114.229 1.3046 115.213 0.303592C115.6 -0.0903954 116.233 -0.0960513 116.627 0.290973C117.021 0.677996 117.027 1.31114 116.64 1.70513C116.186 2.16713 115.957 2.84744 116.027 3.87283C116.098 4.9146 116.475 6.20182 117.112 7.70146C118.385 10.7001 120.563 14.2518 122.801 17.8957L122.832 17.9468C125.033 21.5309 127.288 25.2036 128.626 28.3547C129.299 29.9374 129.773 31.4626 129.866 32.8284C129.961 34.2106 129.668 35.5331 128.685 36.534C127.702 37.535 126.385 37.8512 125.001 37.7814C123.634 37.7123 122.1 37.2655 120.506 36.6218C117.331 35.3401 113.618 33.1507 109.995 31.014L109.944 30.9839C106.261 28.8118 102.671 26.6974 99.65 25.4778C98.1392 24.8679 96.8454 24.5139 95.8026 24.4612C94.7761 24.4094 94.1 24.6506 93.6462 25.1126C93.1923 25.5746 92.9632 26.2549 93.0333 27.2803C93.1046 28.3221 93.4817 29.6093 94.1185 31.1089C95.3918 34.1075 97.5699 37.6593 99.8074 41.3032L99.8388 41.3542C102.04 44.9384 104.295 48.611 105.633 51.7622C106.305 53.3448 106.779 54.8701 106.873 56.2359C106.967 57.6181 106.675 58.9405 105.691 59.9415C104.708 60.9425 103.391 61.2587 102.007 61.1888C100.64 61.1198 99.1067 60.673 97.5122 60.0293C94.3376 58.7476 90.6251 56.5583 87.0021 54.4216L86.9508 54.3914C83.2675 52.2192 79.6774 50.1049 76.6566 48.8853C75.1458 48.2754 73.8521 47.9213 72.8092 47.8687C71.7827 47.8168 71.1066 48.0581 70.6528 48.5201C70.199 48.982 69.9699 49.6622 70.0401 50.6876C70.1114 51.7293 70.4885 53.0165 71.1253 54.5161C72.3987 57.5147 74.5768 61.0664 76.8144 64.7103L76.8452 64.7606C79.0463 68.345 81.3017 72.018 82.6399 75.1694C83.312 76.7521 83.7861 78.2774 83.8795 79.6432C83.974 81.0255 83.6814 82.3479 82.6981 83.3489C81.7159 84.3489 80.3995 84.663 79.0174 84.5916C77.6516 84.521 76.1194 84.073 74.5261 83.4283C71.3573 82.1463 67.6512 79.9592 64.0331 77.8241L63.9692 77.7864C60.2869 75.6135 56.6972 73.4987 53.6767 72.2789C52.166 71.6689 50.8723 71.3148 49.8295 71.2621C48.8031 71.2103 48.127 71.4515 47.6731 71.9135C47.2217 72.3731 46.9935 73.0511 47.0648 74.0754C47.1372 75.116 47.5154 76.4022 48.1531 77.901C49.4284 80.8979 51.6078 84.4485 53.8463 88.0916L53.8698 88.1299C56.0741 91.7174 58.3335 95.3946 59.6734 98.5494C60.3455 100.132 60.8197 101.657 60.9132 103.023C61.0077 104.405 60.7151 105.728 59.7318 106.729C58.7495 107.729 57.4332 108.043 56.0511 107.972C54.6852 107.901 53.153 107.453 51.5597 106.808C48.3907 105.526 44.6845 103.339 41.0662 101.204L41.0027 101.166C37.3204 98.9935 33.7308 96.8787 30.7102 95.659C29.1996 95.0489 27.9059 94.6948 26.8631 94.6421C25.8367 94.5903 25.1606 94.8315 24.7068 95.2935C24.253 95.7554 24.0239 96.4357 24.094 97.4611C24.1653 98.5029 24.5424 99.7901 25.1792 101.29C26.4525 104.288 28.6306 107.84 30.8681 111.484L30.8993 111.535C33.1003 115.119 35.3556 118.792 36.6937 121.943C37.3658 123.526 37.8398 125.051 37.9333 126.417C38.0279 127.799 37.7352 129.122 36.752 130.123C35.7687 131.124 34.4516 131.44 33.0679 131.37C31.7006 131.301 30.1672 130.854 28.5727 130.21C25.3981 128.929 21.6856 126.739 18.0626 124.603L18.0114 124.572C14.3281 122.4 10.738 120.286 7.71721 119.066C6.20644 118.456 4.9127 118.102 3.86984 118.049C2.84337 117.998 2.16728 118.239 1.71348 118.701C1.32646 119.095 0.69332 119.1 0.299326 118.713Z" fill="#13131C"/>
</svg>
